<svg version="1.1" xmlns="http://www.w3.org/2000/svg" viewBox="0 0 468 509" width="468" height="509">
  <!-- svg-source:excalidraw -->
  
  <defs>
    <style class="style-fonts">
      @font-face {
        font-family: "Virgil";
        src: url("https://excalidraw.com/Virgil.woff2");
      }
      @font-face {
        font-family: "Cascadia";
        src: url("https://excalidraw.com/Cascadia.woff2");
      }
      @font-face {
        font-family: "Assistant";
        src: url("https://excalidraw.com/Assistant-Regular.woff2");
      }
    </style>
    
  </defs>
  <g stroke-linecap="round" transform="translate(10 10) rotate(0 224 244.5)"><path d="M281.25 61.25 C315.8 101.12, 355.47 140.38, 391.75 183.75 C447.19 243.98, 446.01 241.92, 391.75 306.25 C363.61 332.85, 337 362.38, 281.25 427.75 C225.61 485.76, 226.48 490.33, 168.75 427.75 C137.31 390.72, 104.32 352.15, 56.25 306.25 C1.36 244.07, -0.44 247.26, 56.25 183.75 C97.72 140.66, 137.46 90.31, 168.75 61.25 C221.86 -3.24, 225.23 -1.23, 281.25 61.25" stroke="none" stroke-width="0" fill="#228be6"></path><path d="M281.25 61.25 C317.2 98.49, 351.4 139.3, 391.75 183.75 M281.25 61.25 C320.4 103.83, 359.45 146.9, 391.75 183.75 M391.75 183.75 C449.36 243.3, 448.31 244.51, 391.75 306.25 M391.75 183.75 C447.13 242.95, 446.67 243.43, 391.75 306.25 M391.75 306.25 C363.51 335.28, 335.24 366.03, 281.25 427.75 M391.75 306.25 C364.06 338.59, 334.66 370.79, 281.25 427.75 M281.25 427.75 C223.38 489.13, 224.22 488.82, 168.75 427.75 M281.25 427.75 C227.27 486.88, 224.4 486.99, 168.75 427.75 M168.75 427.75 C143.26 402.18, 119.22 374.97, 56.25 306.25 M168.75 427.75 C130.97 386.88, 94.13 346.11, 56.25 306.25 M56.25 306.25 C-1.08 243.69, -1.47 244.71, 56.25 183.75 M56.25 306.25 C-0.07 246.06, 1.14 245.55, 56.25 183.75 M56.25 183.75 C99.98 135.57, 142.3 91.22, 168.75 61.25 M56.25 183.75 C84.22 150.53, 115.31 120.48, 168.75 61.25 M168.75 61.25 C224.24 0.75, 223.9 -1.66, 281.25 61.25 M168.75 61.25 C226.34 -2.18, 224.63 -0.68, 281.25 61.25" stroke="#1e1e1e" stroke-width="4" fill="none"></path></g><g stroke-linecap="round" transform="translate(248 144) rotate(0 94 109.5)"><path d="M118.75 27.5 C134.22 42.56, 145.78 60.69, 164.25 82.5 C186.01 106.92, 185.7 107.62, 164.25 137.5 C148.38 152.59, 135.57 168.27, 118.75 191.5 C96.48 220.33, 95.14 218.2, 71.25 191.5 C55.79 166.76, 35.34 148.45, 23.75 137.5 C-0.44 112.26, 2.62 110.65, 23.75 82.5 C37.16 62.11, 51.89 42.31, 71.25 27.5 C95.23 -1.23, 97.72 -0.87, 118.75 27.5" stroke="none" stroke-width="0" fill="#ffffff"></path><path d="M118.75 27.5 C132.16 42.6, 143.13 56.68, 164.25 82.5 M118.75 27.5 C134.73 47.42, 151.92 66.1, 164.25 82.5 M164.25 82.5 C188.31 109.51, 187.24 108.22, 164.25 137.5 M164.25 82.5 C186.67 108.43, 186.9 108.65, 164.25 137.5 M164.25 137.5 C154.3 148.57, 143.65 161.88, 118.75 191.5 M164.25 137.5 C150.36 155.52, 134.21 172.84, 118.75 191.5 M118.75 191.5 C94.22 218.82, 96.97 217.16, 71.25 191.5 M118.75 191.5 C94.4 216.99, 93.04 220.79, 71.25 191.5 M71.25 191.5 C56.83 174.81, 43.5 158.36, 23.75 137.5 M71.25 191.5 C61.43 180.67, 50.59 167.87, 23.75 137.5 M23.75 137.5 C-1.47 109.71, -0.06 110.93, 23.75 82.5 M23.75 137.5 C1.14 110.55, 1.91 111.66, 23.75 82.5 M23.75 82.5 C36.89 69.02, 48.12 54.04, 71.25 27.5 M23.75 82.5 C40.82 65.71, 55.2 47.04, 71.25 27.5 M71.25 27.5 C93.9 -1.66, 96.17 -1.9, 118.75 27.5 M71.25 27.5 C94.63 -0.68, 95.75 -1.01, 118.75 27.5" stroke="#1e1e1e" stroke-width="4" fill="none"></path></g><g stroke-linecap="round" transform="translate(32 145.5) rotate(0 94 109.5)"><path d="M118.75 27.5 C127.51 37.92, 138.17 51.89, 164.25 82.5 C188.72 109.39, 185.52 108.86, 164.25 137.5 C154.31 151.84, 141.39 163.46, 118.75 191.5 C98.09 221.28, 93.17 222.48, 71.25 191.5 C60.76 182.54, 54.14 169.92, 23.75 137.5 C1.05 109.94, 3.15 107.76, 23.75 82.5 C37.06 67.9, 51.77 54.11, 71.25 27.5 C95.54 0.25, 92.26 1, 118.75 27.5" stroke="none" stroke-width="0" fill="#ffffff"></path><path d="M118.75 27.5 C135.98 45.48, 150.94 65, 164.25 82.5 M118.75 27.5 C134.01 45.45, 148.21 62.61, 164.25 82.5 M164.25 82.5 C186.84 108.64, 187.04 108.82, 164.25 137.5 M164.25 82.5 C186.14 110.39, 187.18 109.92, 164.25 137.5 M164.25 137.5 C152.29 153.95, 139.69 167.83, 118.75 191.5 M164.25 137.5 C148.13 155.59, 134.21 172.91, 118.75 191.5 M118.75 191.5 C94.48 217.25, 93.3 220.55, 71.25 191.5 M118.75 191.5 C95.01 218.56, 95.6 218.71, 71.25 191.5 M71.25 191.5 C56.54 175.32, 46.74 162.22, 23.75 137.5 M71.25 191.5 C54.17 172.13, 38.25 153.83, 23.75 137.5 M23.75 137.5 C0.99 110.48, 1.66 111.44, 23.75 82.5 M23.75 137.5 C-0.71 111.75, -1.86 110.88, 23.75 82.5 M23.75 82.5 C41.07 61.47, 55.03 45.94, 71.25 27.5 M23.75 82.5 C41.91 60.07, 61.54 38.54, 71.25 27.5 M71.25 27.5 C94.68 -0.59, 95.65 -0.87, 118.75 27.5 M71.25 27.5 C95.22 -0.78, 94.58 1.1, 118.75 27.5" stroke="#1e1e1e" stroke-width="4" fill="none"></path></g><g stroke-linecap="round" transform="translate(97 100.5) rotate(0 143 150.5)"><path d="M180 37.75 C200.11 56.83, 215.74 78.83, 250 113.25 C288.62 151.65, 287.05 150.94, 250 188.75 C218.89 213.85, 195.14 244.73, 180 263.25 C146.72 300.13, 144.54 301.25, 108 263.25 C94.76 244.81, 76 229.53, 36 188.75 C-0.6 153.16, 0.09 152.61, 36 113.25 C50.46 98.7, 65.49 78.46, 108 37.75 C145.22 2.2, 145.39 1.53, 180 37.75" stroke="none" stroke-width="0" fill="#ffffff"></path><path d="M180 37.75 C197.75 58.8, 217.53 79.59, 250 113.25 M180 37.75 C201.28 60.99, 223.42 84.25, 250 113.25 M250 113.25 C287.97 149.16, 285.48 149.25, 250 188.75 M250 113.25 C284.04 152.79, 286.01 150.56, 250 188.75 M250 188.75 C227.75 212.02, 202.55 235.76, 180 263.25 M250 188.75 C223.78 215.82, 197.86 243.71, 180 263.25 M180 263.25 C143.94 301.93, 144.99 301.48, 108 263.25 M180 263.25 C145.91 302.66, 143.29 302.75, 108 263.25 M108 263.25 C91.15 248.04, 76.76 229.2, 36 188.75 M108 263.25 C92.33 249.15, 77.55 232.82, 36 188.75 M36 188.75 C1.17 149.1, -0.32 150.41, 36 113.25 M36 188.75 C0.75 149.99, 0.22 150.22, 36 113.25 M36 113.25 C55.48 91.83, 75.12 69.41, 108 37.75 M36 113.25 C53.32 94.6, 70.17 77.01, 108 37.75 M108 37.75 C144.34 -1.8, 144.82 0.74, 180 37.75 M108 37.75 C144.09 -0.51, 145.98 1.45, 180 37.75" stroke="#1e1e1e" stroke-width="4" fill="none"></path></g></svg>