<svg version="1.1" xmlns="http://www.w3.org/2000/svg" viewBox="0 0 730 723" width="730" height="723">
  <!-- svg-source:excalidraw -->
  
  <defs>
    <style class="style-fonts">
      @font-face {
        font-family: "Virgil";
        src: url("https://excalidraw.com/Virgil.woff2");
      }
      @font-face {
        font-family: "Cascadia";
        src: url("https://excalidraw.com/Cascadia.woff2");
      }
      @font-face {
        font-family: "Assistant";
        src: url("https://excalidraw.com/Assistant-Regular.woff2");
      }
    </style>
    
  </defs>
  <g stroke-linecap="round" transform="translate(19.000000000000227 10) rotate(0 350.4999999999999 351.5)"><path d="M32 0 C177.25 3.66, 325.14 1.89, 669 0 C689.98 -0.51, 700.41 12.92, 701 32 C698.59 253.38, 698.31 473.83, 701 671 C704.46 693.22, 693.65 705.59, 669 703 C507.39 704.26, 344.25 706.47, 32 703 C13.88 702.88, -0.81 694.07, 0 671 C-1.56 503.59, -1.09 338.95, 0 32 C1.75 12.01, 13.62 -3.42, 32 0" stroke="none" stroke-width="0" fill="#228be6"></path><path d="M32 0 C162.03 -0.39, 292.28 0.1, 669 0 M32 0 C255.1 -0.5, 478.05 -1.03, 669 0 M669 0 C688.42 0.61, 702.33 12, 701 32 M669 0 C689.73 0.95, 700.54 11.11, 701 32 M701 32 C699.6 222.47, 700.56 412.67, 701 671 M701 32 C701.88 283.67, 701.96 535.43, 701 671 M701 671 C702 691.74, 689.99 703.46, 669 703 M701 671 C702.29 691.91, 690.28 703.61, 669 703 M669 703 C515.94 703.99, 363.59 704, 32 703 M669 703 C467.04 704.57, 264.89 705.07, 32 703 M32 703 C9.27 702.77, 1.27 693.69, 0 671 M32 703 C8.82 704.44, 0.36 690.13, 0 671 M0 671 C1.87 465.47, 1.6 260.23, 0 32 M0 671 C-2.27 424.04, -2.57 177.59, 0 32 M0 32 C-1.26 10.91, 9.01 -0.24, 32 0 M0 32 C1.42 10.9, 10.5 2.15, 32 0" stroke="#1e1e1e" stroke-width="2" fill="none"></path></g><g stroke-linecap="round" transform="translate(90 78) rotate(0 137.5 16)"><path d="M8 0 C110 -3.6, 204.29 -4.22, 267 0 C272.63 -1.83, 276.86 6.1, 275 8 C275.37 15.1, 274.28 16.16, 275 24 C275.45 31.71, 270.29 29.76, 267 32 C188.05 29.9, 102.22 29.45, 8 32 C2.54 31.9, -2.36 26.62, 0 24 C-2.05 18.51, -1.3 15.77, 0 8 C-1 0.18, -0.42 2.01, 8 0" stroke="none" stroke-width="0" fill="#a5d8ff"></path><path d="M8 0 C94.21 -1.94, 180.98 -1.4, 267 0 M8 0 C98.36 -0.61, 188.18 0.21, 267 0 M267 0 C270.51 -0.38, 275.54 4.13, 275 8 M267 0 C273.69 -1.2, 273.29 2.09, 275 8 M275 8 C273.74 13.84, 274.59 20.82, 275 24 M275 8 C274.24 13.04, 274.89 16.96, 275 24 M275 24 C274.96 27.66, 270.95 30.9, 267 32 M275 24 C275.95 27.41, 270.83 33.46, 267 32 M267 32 C185.17 32.14, 105.19 32.24, 8 32 M267 32 C197.48 31.96, 126.97 32.09, 8 32 M8 32 C1.87 30.54, -0.49 31.27, 0 24 M8 32 C1.85 32.46, -0.53 28.93, 0 24 M0 24 C-0.94 18.05, -1.05 12.58, 0 8 M0 24 C-0.38 17.83, 0.44 11.87, 0 8 M0 8 C-1.45 4.31, 3 -1.3, 8 0 M0 8 C1.42 2.63, 3.02 -2.22, 8 0" stroke="#1e1e1e" stroke-width="2" fill="none"></path></g><g stroke-linecap="round" transform="translate(408.5 76) rotate(0 145.5 16.5)"><path d="M8.25 0 C73.39 1.34, 140.66 0.82, 282.75 0 C288.82 1.39, 293.65 2.08, 291 8.25 C288.76 15.93, 290.32 19.45, 291 24.75 C293.67 32.53, 288.16 35.71, 282.75 33 C199.64 31.26, 117.79 32.08, 8.25 33 C6.26 30.03, -3.01 28.43, 0 24.75 C-1.02 19.23, -2.16 14.32, 0 8.25 C-1.72 0.06, 5.47 1.56, 8.25 0" stroke="none" stroke-width="0" fill="#a5d8ff"></path><path d="M8.25 0 C116.21 1.54, 223.24 0.92, 282.75 0 M8.25 0 C117.48 1.23, 225.03 0.12, 282.75 0 M282.75 0 C287.45 -1.82, 290.34 1.19, 291 8.25 M282.75 0 C286.61 -0.67, 289.99 2.71, 291 8.25 M291 8.25 C292.09 13.9, 291.24 14.88, 291 24.75 M291 8.25 C291.46 12.64, 291.61 14.97, 291 24.75 M291 24.75 C290.92 31.09, 286.64 31.8, 282.75 33 M291 24.75 C291.31 29.86, 289.87 32.02, 282.75 33 M282.75 33 C188.53 35.29, 96.62 35.21, 8.25 33 M282.75 33 C195.88 34.59, 107.43 33.59, 8.25 33 M8.25 33 C3.59 32.97, -1.4 30.46, 0 24.75 M8.25 33 C4.14 34.42, 2.28 31.23, 0 24.75 M0 24.75 C-0.98 19.73, -0.87 16.11, 0 8.25 M0 24.75 C-0.37 19.63, -0.87 13.8, 0 8.25 M0 8.25 C-0.23 0.78, 4.66 1.29, 8.25 0 M0 8.25 C-0.68 5.03, 3.73 -0.93, 8.25 0" stroke="#1e1e1e" stroke-width="2" fill="none"></path></g><g stroke-linecap="round" transform="translate(409 130) rotate(0 22.5 263)"><path d="M11.25 0 C21.95 -0.97, 27.48 0.95, 33.75 0 C41.97 -1.44, 48.34 3.72, 45 11.25 C42.74 140.28, 42.84 266.64, 45 514.75 C43.71 523.42, 38.98 525.81, 33.75 526 C30.83 526.01, 22.01 522.53, 11.25 526 C2.91 528.15, 0.09 525.66, 0 514.75 C-4.91 383.1, -4.66 249.03, 0 11.25 C1.6 5.85, 6.39 -0.75, 11.25 0" stroke="none" stroke-width="0" fill="#a5d8ff"></path><path d="M11.25 0 C19.08 -0.43, 23.57 -1.27, 33.75 0 M11.25 0 C16.39 -0.58, 21.41 -0.17, 33.75 0 M33.75 0 C41.5 -0.65, 46.06 4.31, 45 11.25 M33.75 0 C42.71 0.18, 42.71 1.87, 45 11.25 M45 11.25 C44.88 150.36, 44.43 290.34, 45 514.75 M45 11.25 C45.45 123.15, 45.84 234.81, 45 514.75 M45 514.75 C46.62 524.15, 41.96 526.51, 33.75 526 M45 514.75 C44.79 520.12, 41.49 527.61, 33.75 526 M33.75 526 C24.79 526.61, 17 525.67, 11.25 526 M33.75 526 C29.27 526.4, 24.26 526.48, 11.25 526 M11.25 526 C3.3 526.08, -1.33 520.42, 0 514.75 M11.25 526 C2.64 526.13, 2.15 522.35, 0 514.75 M0 514.75 C-1.33 353.39, -2.14 189.87, 0 11.25 M0 514.75 C-0.61 359.12, -1.03 203.09, 0 11.25 M0 11.25 C0.82 3.95, 4.05 1.47, 11.25 0 M0 11.25 C-1.33 2.27, 3.1 1, 11.25 0" stroke="#1e1e1e" stroke-width="2" fill="none"></path></g><g stroke-linecap="round" transform="translate(133 132) rotate(0 87 79.5)"><path d="M32 0 C66.09 -0.23, 101.78 -2.6, 142 0 C162.2 1.09, 171.98 10.03, 174 32 C178.12 55.22, 171.29 80.27, 174 127 C174.69 149.15, 160.79 161.48, 142 159 C96.33 161.23, 56.42 161.82, 32 159 C11.98 157.45, 0.5 146.44, 0 127 C0.61 97.34, -0.85 71.92, 0 32 C-2.6 11.22, 11.31 -1.77, 32 0" stroke="none" stroke-width="0" fill="#a5d8ff"></path><path d="M32 0 C60.2 -0.47, 90.98 1.13, 142 0 M32 0 C67.74 0.18, 101.29 -0.64, 142 0 M142 0 C162.96 1.12, 175.28 11.87, 174 32 M142 0 C165.13 -2.25, 174.02 9.83, 174 32 M174 32 C172.45 69.4, 173.9 103.47, 174 127 M174 32 C172.37 57.79, 172.49 83.43, 174 127 M174 127 C172.9 146.75, 162.49 158.96, 142 159 M174 127 C175.3 149.51, 164.78 157.73, 142 159 M142 159 C103.98 157.86, 65.17 156.96, 32 159 M142 159 C102.09 159.61, 61.88 159.39, 32 159 M32 159 C8.82 157.23, -0.76 150.01, 0 127 M32 159 C12.96 158.27, -0.48 147.68, 0 127 M0 127 C-2.31 100.31, -2.07 75.55, 0 32 M0 127 C0.69 102.08, -0.24 75.9, 0 32 M0 32 C-0.69 10, 11.47 0.02, 32 0 M0 32 C0.88 11.49, 9.35 -0.51, 32 0" stroke="#1e1e1e" stroke-width="2" fill="none"></path></g><g stroke-linecap="round" transform="translate(471 125.5) rotate(0 87 79.5)"><path d="M32 0 C67.99 0.08, 106.59 0.28, 142 0 C164.71 -3.51, 173.49 13.13, 174 32 C178.34 60.89, 177.94 93.07, 174 127 C174.7 145.31, 160.22 158.02, 142 159 C98.98 163.66, 57.28 158.29, 32 159 C10.2 162.56, 2.21 146.87, 0 127 C3.6 95.88, 2.71 67.08, 0 32 C-2.68 13.59, 13.92 -2.94, 32 0" stroke="none" stroke-width="0" fill="#a5d8ff"></path><path d="M32 0 C60.62 -2.97, 93.01 -1.44, 142 0 M32 0 C59.87 0.42, 88.85 -1.28, 142 0 M142 0 C163.02 -0.53, 174.97 8.72, 174 32 M142 0 C161.85 1.96, 171.96 10.9, 174 32 M174 32 C172.74 69.69, 173.75 102.41, 174 127 M174 32 C173.82 64.69, 172.26 96.58, 174 127 M174 127 C173.33 146.65, 164.87 159.62, 142 159 M174 127 C174.31 149.27, 164.12 161.11, 142 159 M142 159 C117.1 159.76, 94.51 160.55, 32 159 M142 159 C100.13 158.46, 60.86 158.15, 32 159 M32 159 C11.05 157.5, 0.64 147.99, 0 127 M32 159 C10.12 158.05, 1.39 149.38, 0 127 M0 127 C0.24 98.5, -0.02 73.27, 0 32 M0 127 C-1.02 93.28, -0.91 60.85, 0 32 M0 32 C0.6 9.92, 10.28 -1.98, 32 0 M0 32 C-1.77 9.72, 12.39 1.55, 32 0" stroke="#1e1e1e" stroke-width="2" fill="none"></path></g><g stroke-linecap="round" transform="translate(130 321.5) rotate(0 87 79.5)"><path d="M32 0 C62.12 -1.66, 101.06 1.23, 142 0 C160.63 -1.11, 173.72 13.67, 174 32 C176.22 61.09, 172.77 91.12, 174 127 C170.68 149.9, 164.52 162.1, 142 159 C120.9 155.58, 94.24 157.88, 32 159 C8.67 159.36, -1.66 151.91, 0 127 C-1.82 98.87, -1.09 76.12, 0 32 C-2.72 11.94, 13.31 -0.64, 32 0" stroke="none" stroke-width="0" fill="#a5d8ff"></path><path d="M32 0 C75.54 1.28, 118.84 1.59, 142 0 M32 0 C55.01 -0.98, 75.95 -1.02, 142 0 M142 0 C164.54 -1.61, 172.19 9.24, 174 32 M142 0 C162.24 -1.5, 172.24 10.74, 174 32 M174 32 C172.87 61.31, 174.41 93.46, 174 127 M174 32 C174.53 53.36, 175.49 73.64, 174 127 M174 127 C174.32 149.57, 163.17 160.51, 142 159 M174 127 C171.71 146.95, 162.08 157.86, 142 159 M142 159 C111.07 157.78, 81.61 160.16, 32 159 M142 159 C101.58 157.89, 60.84 157.56, 32 159 M32 159 C11.66 158.25, 1.81 149.06, 0 127 M32 159 C12.15 158.73, -2.22 149.1, 0 127 M0 127 C-0.14 91.07, 1.33 55.81, 0 32 M0 127 C1.21 93.6, 1.19 59.76, 0 32 M0 32 C0.42 12.04, 12.65 0.77, 32 0 M0 32 C-1.75 10.26, 8.71 0.59, 32 0" stroke="#1e1e1e" stroke-width="2" fill="none"></path></g><g stroke-linecap="round" transform="translate(477 308.5) rotate(0 87 79.5)"><path d="M32 0 C58.67 -1.08, 90.71 -2.82, 142 0 C164.37 -0.69, 176.53 8.85, 174 32 C176.22 58.26, 176.41 88.7, 174 127 C170.54 146.51, 159.85 162.43, 142 159 C99.77 155.68, 65.26 155.61, 32 159 C10.96 159.82, -0.9 149.55, 0 127 C1.91 106.3, -0.64 77.79, 0 32 C2.12 10.69, 10.89 -3.07, 32 0" stroke="none" stroke-width="0" fill="#a5d8ff"></path><path d="M32 0 C61.3 1.88, 92.05 0.22, 142 0 M32 0 C60.62 1.12, 88.93 0.81, 142 0 M142 0 C164.8 -0.36, 175.21 10.83, 174 32 M142 0 C161.44 -1.95, 174.17 11.08, 174 32 M174 32 C175.56 67.21, 173.05 100.04, 174 127 M174 32 C174.37 61.5, 174.5 92.75, 174 127 M174 127 C172.87 148.51, 161.74 157.67, 142 159 M174 127 C173.4 150.28, 162.59 160.76, 142 159 M142 159 C120.55 160, 95.8 159.03, 32 159 M142 159 C103.02 158.36, 65.55 158.88, 32 159 M32 159 C12.05 159.28, 0.78 149.98, 0 127 M32 159 C12.89 160.2, 1.51 146.63, 0 127 M0 127 C-0.19 101.23, -1.76 71.21, 0 32 M0 127 C0.88 104.72, -0.43 81.08, 0 32 M0 32 C-1.52 8.99, 8.74 1.43, 32 0 M0 32 C-1.37 11.32, 10.12 -0.74, 32 0" stroke="#1e1e1e" stroke-width="2" fill="none"></path></g><g stroke-linecap="round" transform="translate(480 505.5) rotate(0 87 79.5)"><path d="M32 0 C68.27 2.15, 101.45 2.31, 142 0 C165.15 -1.82, 176.15 8.8, 174 32 C170.82 52.58, 175.44 76.95, 174 127 C172.2 144.97, 164.88 155.92, 142 159 C113.32 157.14, 87.62 162.07, 32 159 C12.95 161.97, -3.36 146.77, 0 127 C4.69 98.31, 4.06 63.67, 0 32 C-2.9 10.21, 7.3 0.78, 32 0" stroke="none" stroke-width="0" fill="#a5d8ff"></path><path d="M32 0 C64.06 -0.73, 99.32 -0.14, 142 0 M32 0 C60.55 -0.23, 86.83 0.84, 142 0 M142 0 C163.06 -0.19, 175.22 8.99, 174 32 M142 0 C162.21 0.69, 172.81 8.63, 174 32 M174 32 C172.61 60.64, 173.47 87.88, 174 127 M174 32 C174.17 68.64, 174.64 106.4, 174 127 M174 127 C172.6 147.21, 163.61 158.11, 142 159 M174 127 C174.4 149.9, 164 159.31, 142 159 M142 159 C100.25 161.32, 60.01 157.46, 32 159 M142 159 C105.4 159.69, 70.12 159.76, 32 159 M32 159 C11.97 160.88, 1.13 150.27, 0 127 M32 159 C11.62 157.33, 1.5 149.66, 0 127 M0 127 C-0.11 90.47, 1.5 53.48, 0 32 M0 127 C-1.46 104.78, -0.97 83.05, 0 32 M0 32 C-1.65 9.85, 11.67 -0.31, 32 0 M0 32 C1.69 10.04, 11.79 0.68, 32 0" stroke="#1e1e1e" stroke-width="2" fill="none"></path></g><g stroke-linecap="round" transform="translate(132 511.5) rotate(0 87 79.5)"><path d="M32 0 C63.11 -1.75, 95.4 1.2, 142 0 C165.8 -1.48, 176.11 7.67, 174 32 C172.89 58.54, 171.64 78.18, 174 127 C175.36 147.01, 161.57 158.31, 142 159 C99.47 155.18, 57.85 155.66, 32 159 C9.57 156.21, -3.58 150, 0 127 C3.99 91.4, 3.34 58.37, 0 32 C-2.51 11.21, 7.23 -0.57, 32 0" stroke="none" stroke-width="0" fill="#a5d8ff"></path><path d="M32 0 C58.65 1.04, 85.54 1.14, 142 0 M32 0 C61.65 1.51, 93.82 0.4, 142 0 M142 0 C162.9 -1.58, 172.39 11.79, 174 32 M142 0 C161.44 0.18, 174.52 10.09, 174 32 M174 32 C174.45 64.13, 175.33 94.41, 174 127 M174 32 C174.62 56.09, 173.63 81.94, 174 127 M174 127 C173.3 149.98, 163.51 160.42, 142 159 M174 127 C172.27 146.9, 163.14 156.71, 142 159 M142 159 C119.11 158.63, 95.76 158.99, 32 159 M142 159 C109.65 160.09, 79.41 158.49, 32 159 M32 159 C11.8 158.21, 0.93 146.64, 0 127 M32 159 C11.53 158.52, 2.22 147.86, 0 127 M0 127 C0.52 88.12, 1.7 50.92, 0 32 M0 127 C-0.2 94.9, -0.35 61.11, 0 32 M0 32 C1.7 9.68, 10.3 0.6, 32 0 M0 32 C-0.56 10.98, 10.23 0.71, 32 0" stroke="#1e1e1e" stroke-width="2" fill="none"></path></g><g transform="translate(373 29) rotate(0 18.21666717529297 12.5)"><text x="0" y="0" font-family="Virgil, Segoe UI Emoji" font-size="20px" fill="#1e1e1e" text-anchor="start" style="white-space: pre;" direction="ltr" dominant-baseline="text-before-edge">VPC</text></g><g transform="translate(470 80) rotate(0 96.58333587646484 12.5)"><text x="0" y="0" font-family="Virgil, Segoe UI Emoji" font-size="20px" fill="#1e1e1e" text-anchor="start" style="white-space: pre;" direction="ltr" dominant-baseline="text-before-edge">private route table</text></g><g transform="translate(142 80) rotate(0 87.68333435058594 12.5)"><text x="0" y="0" font-family="Virgil, Segoe UI Emoji" font-size="20px" fill="#1e1e1e" text-anchor="start" style="white-space: pre;" direction="ltr" dominant-baseline="text-before-edge">public route table</text></g><g transform="translate(488 133) rotate(0 71.42500305175781 12.5)"><text x="0" y="0" font-family="Virgil, Segoe UI Emoji" font-size="20px" fill="#1e1e1e" text-anchor="start" style="white-space: pre;" direction="ltr" dominant-baseline="text-before-edge">private subnet</text></g><g transform="translate(158.4749984741211 330.5) rotate(0 62.525001525878906 12.5)"><text x="0" y="0" font-family="Virgil, Segoe UI Emoji" font-size="20px" fill="#1e1e1e" text-anchor="start" style="white-space: pre;" direction="ltr" dominant-baseline="text-before-edge">public subnet</text></g><g transform="translate(159.4749984741211 143.5) rotate(0 62.525001525878906 12.5)"><text x="0" y="0" font-family="Virgil, Segoe UI Emoji" font-size="20px" fill="#1e1e1e" text-anchor="start" style="white-space: pre;" direction="ltr" dominant-baseline="text-before-edge">public subnet</text></g><g transform="translate(156.4749984741211 521.5) rotate(0 62.525001525878906 12.5)"><text x="0" y="0" font-family="Virgil, Segoe UI Emoji" font-size="20px" fill="#1e1e1e" text-anchor="start" style="white-space: pre;" direction="ltr" dominant-baseline="text-before-edge">public subnet</text></g><g transform="translate(490.5749969482422 319.5) rotate(0 71.42500305175781 12.5)"><text x="0" y="0" font-family="Virgil, Segoe UI Emoji" font-size="20px" fill="#1e1e1e" text-anchor="start" style="white-space: pre;" direction="ltr" dominant-baseline="text-before-edge">private subnet</text></g><g transform="translate(493.5749969482422 513.5) rotate(0 71.42500305175781 12.5)"><text x="0" y="0" font-family="Virgil, Segoe UI Emoji" font-size="20px" fill="#1e1e1e" text-anchor="start" style="white-space: pre;" direction="ltr" dominant-baseline="text-before-edge">private subnet</text></g><g transform="translate(164 170) rotate(0 55.79166793823242 12.5)"><text x="0" y="0" font-family="Virgil, Segoe UI Emoji" font-size="20px" fill="#1e1e1e" text-anchor="start" style="white-space: pre;" direction="ltr" dominant-baseline="text-before-edge">eu-west-2a</text></g><g transform="translate(501.2083320617676 161.5) rotate(0 55.79166793823242 12.5)"><text x="0" y="0" font-family="Virgil, Segoe UI Emoji" font-size="20px" fill="#1e1e1e" text-anchor="start" style="white-space: pre;" direction="ltr" dominant-baseline="text-before-edge">eu-west-2a</text></g><g transform="translate(166 356) rotate(0 54.20833206176758 12.5)"><text x="0" y="0" font-family="Virgil, Segoe UI Emoji" font-size="20px" fill="#1e1e1e" text-anchor="start" style="white-space: pre;" direction="ltr" dominant-baseline="text-before-edge">eu-west-2b</text></g><g transform="translate(506.7916679382324 345.5) rotate(0 54.20833206176758 12.5)"><text x="0" y="0" font-family="Virgil, Segoe UI Emoji" font-size="20px" fill="#1e1e1e" text-anchor="start" style="white-space: pre;" direction="ltr" dominant-baseline="text-before-edge">eu-west-2b</text></g><g transform="translate(163 548) rotate(0 54.141666412353516 12.5)"><text x="0" y="0" font-family="Virgil, Segoe UI Emoji" font-size="20px" fill="#1e1e1e" text-anchor="start" style="white-space: pre;" direction="ltr" dominant-baseline="text-before-edge">eu-west-2c</text></g><g transform="translate(505.8583335876465 542.5) rotate(0 54.141666412353516 12.5)"><text x="0" y="0" font-family="Virgil, Segoe UI Emoji" font-size="20px" fill="#1e1e1e" text-anchor="start" style="white-space: pre;" direction="ltr" dominant-baseline="text-before-edge">eu-west-2c</text></g><g stroke-linecap="round"><g transform="translate(104 110) rotate(0 -0.5 240)"><path d="M0.7 -1.2 C0.58 78.87, -0.03 400.8, -0.2 480.83 M-0.39 0.79 C-0.65 80.49, -0.68 399.31, -0.73 479.15" stroke="#1e1e1e" stroke-width="2" fill="none"></path></g></g><mask></mask><g stroke-linecap="round"><g transform="translate(104 592) rotate(0 14.5 0)"><path d="M0.39 0.22 C5.29 0.19, 24.7 -0.18, 29.52 -0.13 M-0.08 -0.14 C4.79 -0.1, 24.48 0.53, 29.35 0.51" stroke="#1e1e1e" stroke-width="2" fill="none"></path></g></g><mask></mask><g stroke-linecap="round"><g transform="translate(104 390) rotate(0 13 0)"><path d="M0.01 -0.32 C4.39 -0.27, 21.94 0.5, 26.29 0.5 M-0.65 0.71 C3.68 0.6, 21.59 -0.11, 26 -0.21" stroke="#1e1e1e" stroke-width="2" fill="none"></path></g></g><mask></mask><g stroke-linecap="round"><g transform="translate(104 200) rotate(0 13 0)"><path d="M-0.21 -0.48 C4.09 -0.36, 21.55 0.4, 25.83 0.49 M0.69 0.46 C4.89 0.45, 21 -0.27, 25.31 -0.22" stroke="#1e1e1e" stroke-width="2" fill="none"></path></g></g><mask></mask><g stroke-linecap="round" transform="translate(10 122) rotate(0 28.5 277.5)"><path d="M14.25 0 C20.26 3.72, 33.39 -0.92, 42.75 0 C53.34 0.12, 57.45 3.59, 57 14.25 C58.17 198.58, 56.88 385.47, 57 540.75 C56.64 549.73, 52.6 551.48, 42.75 555 C36.44 553.59, 27.64 556.59, 14.25 555 C7.6 556.8, 2.91 553.67, 0 540.75 C-2.31 364.24, 0.04 188.69, 0 14.25 C1.54 3.35, 4.29 1.25, 14.25 0" stroke="none" stroke-width="0" fill="#a5d8ff"></path><path d="M14.25 0 C22.82 1.19, 32.01 0.82, 42.75 0 M14.25 0 C23.01 0.48, 32.74 0.9, 42.75 0 M42.75 0 C53.47 -0.7, 58.44 3.39, 57 14.25 M42.75 0 C51.85 -1.02, 58.64 5.46, 57 14.25 M57 14.25 C57.84 220.84, 59.1 426.55, 57 540.75 M57 14.25 C56.82 121.33, 57.24 228.65, 57 540.75 M57 540.75 C56.58 551.73, 52.44 555.72, 42.75 555 M57 540.75 C57.06 552.03, 51.63 556.21, 42.75 555 M42.75 555 C36.27 555.88, 25.68 557.02, 14.25 555 M42.75 555 C35.77 554.32, 26.1 554.22, 14.25 555 M14.25 555 C2.8 555.56, 0.5 550.37, 0 540.75 M14.25 555 C4.47 555.05, 0.12 550.75, 0 540.75 M0 540.75 C-0.85 370.87, -1.47 201.21, 0 14.25 M0 540.75 C-0.79 410.37, -0.41 280.74, 0 14.25 M0 14.25 C-1.1 4.53, 4.39 -0.72, 14.25 0 M0 14.25 C-2.1 2.63, 6.93 -0.73, 14.25 0" stroke="#1e1e1e" stroke-width="2" fill="none"></path></g><g transform="translate(-54 385) rotate(270.34748859435797 89.44166564941406 12.5)"><text x="0" y="0" font-family="Virgil, Segoe UI Emoji" font-size="20px" fill="#1e1e1e" text-anchor="start" style="white-space: pre;" direction="ltr" dominant-baseline="text-before-edge">Internet Gateway</text></g><g stroke-linecap="round"><g transform="translate(433 109) rotate(0 0 10)"><path d="M0.17 0.41 C0.01 3.7, -0.53 16.79, -0.52 20.05 M-0.41 0.14 C-0.45 3.51, 0.38 17.37, 0.44 20.77" stroke="#1e1e1e" stroke-width="2" fill="none"></path></g></g><mask></mask><g stroke-linecap="round"><g transform="translate(455 192) rotate(0 8 0)"><path d="M0.11 -0.55 C2.85 -0.52, 13.49 0.06, 16.13 0.1 M-0.5 0.36 C2.21 0.21, 13.09 -0.77, 15.76 -0.81" stroke="#1e1e1e" stroke-width="2" fill="none"></path></g></g><mask></mask><g stroke-linecap="round"><g transform="translate(455 376) rotate(0 10 0)"><path d="M-0.32 -0.43 C2.96 -0.38, 16.4 0.13, 19.71 0.23 M0.52 0.54 C3.97 0.43, 17.45 -0.4, 20.8 -0.61" stroke="#1e1e1e" stroke-width="2" fill="none"></path></g></g><mask></mask><g stroke-linecap="round"><g transform="translate(454 577) rotate(0 13.5 0)"><path d="M0.47 0.44 C4.97 0.47, 22.23 0.25, 26.74 0.09 M0.05 0.19 C4.48 0.06, 21.61 -0.77, 26.17 -0.83" stroke="#1e1e1e" stroke-width="2" fill="none"></path></g></g><mask></mask><g transform="translate(366 357) rotate(270.44604611431635 62.224998474121094 12.5)"><text x="0" y="0" font-family="Virgil, Segoe UI Emoji" font-size="20px" fill="#1e1e1e" text-anchor="start" style="white-space: pre;" direction="ltr" dominant-baseline="text-before-edge">nat gateway</text></g><g stroke-linecap="round"><g transform="translate(40 122) rotate(0 0.5 -14.5)"><path d="M0.47 -0.13 C0.63 -4.93, 1.23 -24.32, 1.33 -29.07 M0.05 -0.68 C0.13 -5.36, 0.95 -23.61, 1.07 -28.41" stroke="#1e1e1e" stroke-width="2" fill="none"></path></g></g><mask></mask><g stroke-linecap="round"><g transform="translate(90 92) rotate(0 -24.5 0)"><path d="M0.53 0.42 C-7.69 0.31, -40.72 -0.21, -48.88 -0.26 M0.14 0.15 C-8.18 0.08, -41.14 0.21, -49.25 0.31" stroke="#1e1e1e" stroke-width="2" fill="none"></path></g></g><mask></mask></svg>